# xmcd CD database file
#
# Track frame offsets:
#	150
#	13047
#	30510
#	40260
#	51000
#	60950
#	76837
#	90642
#	98832
#	115010
#	126112
#	138595
#	147685
#	158032
#	168392
#	183880
#	196730
#	210965
#	223420
#
# Disc length: 3082 seconds
#
# Revision: 2
# Processed by: cddbd v1.4PL0 Copyright (c) Steve Scherf et al.
# Submitted via: CDex 1.50Beta7
#
DISCID=fc0c0813
DTITLE=Sunita and Ensemble - Boughs Of Holly
DYEAR=1900
DGENRE=New Age
TTITLE0=Tomorrow Shall Be My Dancing Day
TTITLE1=Hark! The Herald Angels Sing
TTITLE2=The Holly And The Ivy
TTITLE3=On Christmas Night (Sussex Carol)
TTITLE4=Ding! Dong! Merrily On High
TTITLE5=Good King Wenceslas
TTITLE6=I Saw Three Ships
TTITLE7=Fum, Fum, Fum
TTITLE8=Coventry Carol
TTITLE9=The Snow Lay On The Ground
TTITLE10=The First Nowell
TTITLE11=Wassail Song
TTITLE12=Blessed Be That Maid Marie
TTITLE13=God Rest Ye Merry Gentlemen
TTITLE14=Now The Holly Bears A Berry
TTITLE15=What Child Is This
TTITLE16=Away In A Manger
TTITLE17=Deck The Halls With Boughs Of Holly
TTITLE18=We Wish You A Merry Christmas
EXTD=
EXTT0=
EXTT1=
EXTT2=
EXTT3=
EXTT4=
EXTT5=
EXTT6=
EXTT7=
EXTT8=
EXTT9=
EXTT10=
EXTT11=
EXTT12=
EXTT13=
EXTT14=
EXTT15=
EXTT16=
EXTT17=
EXTT18=
PLAYORDER=
